<?xml version="1.0" encoding="UTF-8" standalone="no"?>
<!DOCTYPE svg PUBLIC "-//W3C//DTD SVG 1.1//EN"
 "http://www.w3.org/Graphics/SVG/1.1/DTD/svg11.dtd">
<!-- Generated by graphviz version 2.40.1 (20161225.0304)
 -->
<!-- Title: %3 Pages: 1 -->
<svg width="398pt" height="476pt"
 viewBox="0.00 0.00 398.04 476.00" xmlns="http://www.w3.org/2000/svg" xmlns:xlink="http://www.w3.org/1999/xlink">
<g id="graph0" class="graph" transform="scale(1 1) rotate(0) translate(4 472)">
<title>%3</title>
<polygon fill="#ffffff" stroke="transparent" points="-4,4 -4,-472 394.0386,-472 394.0386,4 -4,4"/>
<!-- ubuntu:18.04 -->
<g id="node1" class="node">
<title>ubuntu:18.04</title>
<ellipse fill="none" stroke="#000000" cx="70.1938" cy="-450" rx="57.6901" ry="18"/>
<text text-anchor="middle" x="70.1938" y="-446.3" font-family="Times,serif" font-size="14.00" fill="#000000">ubuntu:18.04</text>
</g>
<!-- base&#45;unsquashed -->
<g id="node2" class="node">
<title>base&#45;unsquashed</title>
<ellipse fill="none" stroke="#000000" cx="70.1938" cy="-378" rx="70.3881" ry="18"/>
<text text-anchor="middle" x="70.1938" y="-374.3" font-family="Times,serif" font-size="14.00" fill="#000000">base&#45;unsquashed</text>
</g>
<!-- ubuntu:18.04&#45;&gt;base&#45;unsquashed -->
<g id="edge1" class="edge">
<title>ubuntu:18.04&#45;&gt;base&#45;unsquashed</title>
<path fill="none" stroke="#000000" d="M70.1938,-431.8314C70.1938,-424.131 70.1938,-414.9743 70.1938,-406.4166"/>
<polygon fill="#000000" stroke="#000000" points="73.6939,-406.4132 70.1938,-396.4133 66.6939,-406.4133 73.6939,-406.4132"/>
</g>
<!-- base -->
<g id="node4" class="node">
<title>base</title>
<ellipse fill="none" stroke="#000000" cx="132.1938" cy="-306" rx="27" ry="18"/>
<text text-anchor="middle" x="132.1938" y="-302.3" font-family="Times,serif" font-size="14.00" fill="#000000">base</text>
</g>
<!-- base&#45;unsquashed&#45;&gt;base -->
<g id="edge3" class="edge">
<title>base&#45;unsquashed&#45;&gt;base</title>
<path fill="none" stroke="#000000" stroke-dasharray="5,2" d="M85.5196,-360.2022C93.5555,-350.8703 103.4982,-339.3239 112.1392,-329.2892"/>
<polygon fill="#000000" stroke="#000000" points="114.8557,-331.4983 118.7288,-321.6368 109.5513,-326.9307 114.8557,-331.4983"/>
</g>
<!-- scratch -->
<g id="node3" class="node">
<title>scratch</title>
<ellipse fill="none" stroke="#000000" cx="194.1938" cy="-378" rx="35.9954" ry="18"/>
<text text-anchor="middle" x="194.1938" y="-374.3" font-family="Times,serif" font-size="14.00" fill="#000000">scratch</text>
</g>
<!-- scratch&#45;&gt;base -->
<g id="edge2" class="edge">
<title>scratch&#45;&gt;base</title>
<path fill="none" stroke="#000000" d="M179.8139,-361.3008C171.6041,-351.7669 161.1864,-339.6689 152.1896,-329.221"/>
<polygon fill="#000000" stroke="#000000" points="154.8243,-326.9168 145.6468,-321.6229 149.5199,-331.4845 154.8243,-326.9168"/>
</g>
<!-- build&#45;base -->
<g id="node5" class="node">
<title>build&#45;base</title>
<ellipse fill="none" stroke="#000000" cx="176.1938" cy="-234" rx="47.3916" ry="18"/>
<text text-anchor="middle" x="176.1938" y="-230.3" font-family="Times,serif" font-size="14.00" fill="#000000">build&#45;base</text>
</g>
<!-- base&#45;&gt;build&#45;base -->
<g id="edge4" class="edge">
<title>base&#45;&gt;build&#45;base</title>
<path fill="none" stroke="#000000" d="M142.3988,-289.3008C147.6857,-280.6496 154.2627,-269.8873 160.2057,-260.1623"/>
<polygon fill="#000000" stroke="#000000" points="163.2021,-261.9711 165.4302,-251.6132 157.2291,-258.3209 163.2021,-261.9711"/>
</g>
<!-- default&#45;image -->
<g id="node8" class="node">
<title>default&#45;image</title>
<ellipse fill="none" stroke="#000000" cx="70.1938" cy="-18" rx="59.5901" ry="18"/>
<text text-anchor="middle" x="70.1938" y="-14.3" font-family="Times,serif" font-size="14.00" fill="#000000">default&#45;image</text>
</g>
<!-- base&#45;&gt;default&#45;image -->
<g id="edge7" class="edge">
<title>base&#45;&gt;default&#45;image</title>
<path fill="none" stroke="#000000" d="M128.157,-288.0081C125.8115,-277.5108 122.8115,-264.0108 120.1938,-252 104.0124,-177.755 85.4278,-90.1424 76.1356,-46.1704"/>
<polygon fill="#000000" stroke="#000000" points="79.5241,-45.2765 74.0332,-36.2156 72.6752,-46.723 79.5241,-45.2765"/>
</g>
<!-- go&#45;base -->
<g id="node6" class="node">
<title>go&#45;base</title>
<ellipse fill="none" stroke="#000000" cx="244.1938" cy="-162" rx="38.1938" ry="18"/>
<text text-anchor="middle" x="244.1938" y="-158.3" font-family="Times,serif" font-size="14.00" fill="#000000">go&#45;base</text>
</g>
<!-- build&#45;base&#45;&gt;go&#45;base -->
<g id="edge5" class="edge">
<title>build&#45;base&#45;&gt;go&#45;base</title>
<path fill="none" stroke="#000000" d="M192.3088,-216.937C200.9467,-207.791 211.7377,-196.3652 221.238,-186.3061"/>
<polygon fill="#000000" stroke="#000000" points="223.8727,-188.6139 228.1944,-178.9405 218.7836,-183.8075 223.8727,-188.6139"/>
</g>
<!-- build&#45;image -->
<g id="node9" class="node">
<title>build&#45;image</title>
<ellipse fill="none" stroke="#000000" cx="202.1938" cy="-18" rx="53.8905" ry="18"/>
<text text-anchor="middle" x="202.1938" y="-14.3" font-family="Times,serif" font-size="14.00" fill="#000000">build&#45;image</text>
</g>
<!-- build&#45;base&#45;&gt;build&#45;image -->
<g id="edge9" class="edge">
<title>build&#45;base&#45;&gt;build&#45;image</title>
<path fill="none" stroke="#000000" d="M178.2311,-216.012C181.6346,-186.1061 188.7404,-124.2742 195.1938,-72 196.2362,-63.556 197.4108,-54.375 198.4959,-46.0188"/>
<polygon fill="#000000" stroke="#000000" points="201.9807,-46.3622 199.8057,-35.9931 195.0397,-45.4554 201.9807,-46.3622"/>
</g>
<!-- compile -->
<g id="node7" class="node">
<title>compile</title>
<ellipse fill="none" stroke="#000000" cx="244.1938" cy="-90" rx="39.7935" ry="18"/>
<text text-anchor="middle" x="244.1938" y="-86.3" font-family="Times,serif" font-size="14.00" fill="#000000">compile</text>
</g>
<!-- go&#45;base&#45;&gt;compile -->
<g id="edge6" class="edge">
<title>go&#45;base&#45;&gt;compile</title>
<path fill="none" stroke="#000000" d="M244.1938,-143.8314C244.1938,-136.131 244.1938,-126.9743 244.1938,-118.4166"/>
<polygon fill="#000000" stroke="#000000" points="247.6939,-118.4132 244.1938,-108.4133 240.6939,-118.4133 247.6939,-118.4132"/>
</g>
<!-- go111&#45;image -->
<g id="node10" class="node">
<title>go111&#45;image</title>
<ellipse fill="none" stroke="#000000" cx="332.1938" cy="-18" rx="57.6901" ry="18"/>
<text text-anchor="middle" x="332.1938" y="-14.3" font-family="Times,serif" font-size="14.00" fill="#000000">go111&#45;image</text>
</g>
<!-- go&#45;base&#45;&gt;go111&#45;image -->
<g id="edge11" class="edge">
<title>go&#45;base&#45;&gt;go111&#45;image</title>
<path fill="none" stroke="#000000" d="M261.6363,-145.6833C271.7764,-135.5385 284.2728,-121.8295 293.1938,-108 305.8113,-88.4401 316.0733,-64.1098 322.8981,-45.6795"/>
<polygon fill="#000000" stroke="#000000" points="326.2469,-46.7098 326.3292,-36.1153 319.658,-44.3461 326.2469,-46.7098"/>
</g>
<!-- compile&#45;&gt;default&#45;image -->
<g id="edge8" class="edge">
<title>compile&#45;&gt;default&#45;image</title>
<path fill="none" stroke="#000000" stroke-dasharray="5,2" d="M214.677,-77.7862C187.3498,-66.4783 146.3266,-49.5033 114.9669,-36.5268"/>
<polygon fill="#000000" stroke="#000000" points="116.1492,-33.2283 105.5707,-32.6387 113.4726,-39.6964 116.1492,-33.2283"/>
</g>
<!-- compile&#45;&gt;build&#45;image -->
<g id="edge10" class="edge">
<title>compile&#45;&gt;build&#45;image</title>
<path fill="none" stroke="#000000" stroke-dasharray="5,2" d="M234.0267,-72.5708C229.147,-64.2055 223.1926,-53.998 217.7594,-44.6839"/>
<polygon fill="#000000" stroke="#000000" points="220.6209,-42.6431 212.559,-35.7689 214.5745,-46.1702 220.6209,-42.6431"/>
</g>
<!-- compile&#45;&gt;go111&#45;image -->
<g id="edge12" class="edge">
<title>compile&#45;&gt;go111&#45;image</title>
<path fill="none" stroke="#000000" stroke-dasharray="5,2" d="M263.7238,-74.0209C275.465,-64.4145 290.6147,-52.0192 303.6775,-41.3315"/>
<polygon fill="#000000" stroke="#000000" points="305.9689,-43.9789 311.4922,-34.9377 301.5362,-38.5612 305.9689,-43.9789"/>
</g>
</g>
</svg>
